<?xml version="1.0" encoding="UTF-8"?>
<svg width="320px" height="320px" viewBox="0 0 320 320" version="1.1" xmlns="http://www.w3.org/2000/svg" xmlns:xlink="http://www.w3.org/1999/xlink" style="background: #FFFFFF;">
    <!-- Generator: Sketch 46.1 (44463) - http://www.bohemiancoding.com/sketch -->
    <title>Favicon</title>
    <desc>Created with Sketch.</desc>
    <defs>
        <path d="M242.096735,18.133546 L234.556362,46.395076 L136.161041,46.5140872 C129.486331,46.395076 120.749692,51.0718497 117.472631,61.2211055 L67.9892441,247.250914 C64.9386099,264.149529 78.4868571,273.409476 89.6393262,273.409476 L174.266462,273.409476 L166.763771,300.8 L80.1884911,300.8 C57.8378098,299.597984 32.916754,281.649943 39.4552282,248.965037 L92.1754587,50.124751 C100.732174,24.339939 123.613907,18.0912605 134.791923,18.133546 L242.096735,18.133546 Z" id="path-1"></path>
    </defs>
    <g id="Page-1" stroke="none" stroke-width="1" fill="none" fill-rule="evenodd">
        <g id="Favicon" stroke="#333333">
            <g id="Logo-Blueprint-Copy-2" transform="translate(18.000000, 0.000000)">
                <g id="Horizontal-lines" transform="translate(0.000000, 16.000000)" stroke-linecap="square">
                    <path d="M76.0158075,1.41518152 L268.6606,1.41518152" id="Top"></path>
                    <path d="M0.470459694,284.451485 L193.114561,284.451485" id="Bottom"></path>
                    <path d="M8.04874911,257.091309 L200.669165,257.091309" id="Bottom---d/2"></path>
                    <path d="M68.4635974,29.7188119 L261.105996,29.7188119" id="Top-+-d/2"></path>
                    <path d="M38.245182,142.933333 L230.88758,142.933333" id="Mid"></path>
                </g>
                <g id="Inclined-lines" transform="translate(20.263603, 0.000000)" stroke-linecap="square">
                    <path d="M84.8826905,0 L0,319.125937" id="C-left"></path>
                    <path d="M113.176921,0 L28.2942302,319.122124" id="C-left-Copy"></path>
                    <path d="M198.059611,0 L113.176921,319.125937" id="C-right-guide"></path>
                    <path d="M226.353841,0 L141.471151,319.125937" id="C-right"></path>
                </g>
                <g id="Path-2">
                    <path stroke-width="3" d="M240.144053,19.6335458 L134.786249,19.6335353 C128.258956,19.6088431 120.261654,21.6498343 113.256991,25.7393746 C104.244649,31.0010599 97.3786535,39.2079298 93.6253612,50.5091761 L40.9260863,249.259276 C37.9691966,264.040349 41.4638226,276.501776 50.0809123,285.660753 C57.6910372,293.749442 68.9438646,298.693098 80.1884911,299.3 L165.61939,299.3 L172.300334,274.909476 L89.6393262,274.909476 C83.4339824,274.909476 76.9506696,272.279349 72.4241593,267.724523 C67.2579653,262.526013 65.0062783,255.331313 66.5131046,246.984433 L66.5396504,246.865326 L116.045196,60.7602055 C119.212832,50.9498444 127.821717,44.8651573 136.159227,45.0140883 L233.403729,44.8964691 L240.144053,19.6335458 Z"></path>
                    <use stroke-width="1" xlink:href="#path-1"></use>
                </g>
            </g>
        </g>
    </g>
</svg>