<?xml version="1.0" encoding="UTF-8"?>
<svg width="476px" height="183px" viewBox="0 0 476 183" version="1.1" xmlns="http://www.w3.org/2000/svg" xmlns:xlink="http://www.w3.org/1999/xlink">
    <!-- Generator: Sketch 46.1 (44463) - http://www.bohemiancoding.com/sketch -->
    <title>Rect Dark Logo</title>
    <desc>Created with Sketch.</desc>
    <defs>
        <path d="M128.201731,9.65855926 L124.112247,25.0360691 L70.7480263,25.1008249 C67.1280296,25.0360691 62.3897562,27.5807697 60.6124586,33.1031275 L33.7753859,134.324654 C32.1208893,143.519436 39.4687148,148.557908 45.5172018,148.557908 L91.4143144,148.557908 L87.345267,163.461491 L40.3915877,163.461491 C28.2698051,162.807457 14.7539926,153.041667 18.3001021,135.257334 L46.8926609,27.0654396 C51.5333533,13.035548 63.9431496,9.63555111 70.0054915,9.65855926 L128.201731,9.65855926 Z" id="path-1"></path>
        <path d="M227.665564,38.9377051 C227.665564,38.9377051 201.076358,137.447624 198.960105,146.651158 C196.843852,155.854691 186.980329,163.390048 176.862631,163.390048 L147.308996,163.390048 C137.395366,163.390048 121.505883,153.05271 125.727232,134.090977 L154.082483,27.0408655 C156.725627,16.3888186 166.440799,9.43618438 177.126782,9.43618438 L205.501731,9.51818842 C220.996047,10.5255852 230.279248,23.2236821 227.665564,38.9377051 Z M211.983898,40.0539475 C212.8503,35.9969657 211.735303,26.072238 202.16195,25.0925703 C202.16195,25.0925703 187.30724,24.8625157 179.755299,24.7597213 C171.240926,24.7597213 169.240311,29.482401 167.680869,33.4544263 L140.888237,134.496051 C139.148555,143.578248 147.122324,148.129595 151.936395,148.129595 L175.132989,148.344374 C181.274553,148.344374 183.744264,145.498946 185.518364,139.595494 C187.36878,133.148326 207.760037,55.4548017 211.983898,40.0539475 Z" id="path-2"></path>
        <polygon id="path-3" points="445.9931 24.8939384 450.071664 9.50230782 373.356686 9.42392139 332.531574 163.401469 409.093666 163.560839 413.208617 148.505569 351.91365 148.505569 366.194882 94.1578937 412.148829 94.1584615 416.239402 78.732008 370.278915 78.732008 384.670927 24.8939384"></polygon>
    </defs>
    <g id="Page-1" stroke="none" stroke-width="1" fill="none" fill-rule="evenodd">
        <g id="Rect-Dark-Logo">
            <rect id="Rectangle" fill="#002B36" x="0" y="0" width="478" height="183"></rect>
            <g id="Logo-Blueprint-Copy-4" transform="translate(0.000000, 4.000000)">
                <g id="Horizontal-lines" transform="translate(0.952762, 9.252211)" stroke="#073642" stroke-width="2" stroke-linecap="square">
                    <path d="M0.229166117,0.512831628 L472.531583,0.512831628" id="Top"></path>
                    <path d="M0.229166117,154.36232 L472.531583,154.36232" id="Bottom"></path>
                    <path d="M0.916664469,139.490203 L473.219081,139.490203" id="Bottom---d/2"></path>
                    <path d="M0.916664469,15.8977805 L473.219081,15.8977805" id="Top-+-d/2"></path>
                    <path d="M0.458332235,77.4375759 L472.760749,77.4375759" id="Mid"></path>
                </g>
                <g id="Inclined-lines" transform="translate(8.105378, 0.021242)" stroke="#073642" stroke-width="2" stroke-linecap="square">
                    <path d="M45.9811047,0 L0,173.37506" id="C-left"></path>
                    <path d="M61.3081395,0 L15.3270349,173.372989" id="C-left-Copy"></path>
                    <path d="M122.616279,0 L76.6351744,173.37506" id="C-right"></path>
                    <path d="M107.289244,0 L61.3081395,173.37506" id="C-right-guide"></path>
                    <path d="M153.270349,0 L107.289244,173.37506" id="O-left"></path>
                    <path d="M168.597384,0 L122.616279,173.37506" id="O-left-guide"></path>
                    <path d="M229.905523,0 L183.924419,173.37506" id="O-right"></path>
                    <path d="M214.578488,0 L168.597384,173.37506" id="O-right-guide"></path>
                    <path d="M260.559593,0 L214.578488,173.37506" id="D-left"></path>
                    <path d="M275.886628,0 L229.905523,173.37506" id="D-left-guide"></path>
                    <path d="M337.194767,0 L291.213663,173.37506" id="D-right"></path>
                    <path d="M321.867733,0 L275.886628,173.37506" id="D-right-guide"></path>
                    <path d="M367.848837,0 L321.867733,173.37506" id="E-left"></path>
                    <path d="M383.175872,0 L337.194767,173.37506" id="E-left-guide"></path>
                    <path d="M444.484012,0 L398.502907,173.37506" id="E-right"></path>
                    <path d="M429.156977,0 L383.175872,173.37506" id="E-right-guide"></path>
                </g>
                <g id="O-left-bottom-guide-Copy" transform="translate(166.449128, 125.127363) scale(1, -1) translate(-166.449128, -125.127363) translate(117.949128, 86.127363)" stroke="#073642" stroke-width="2" stroke-linecap="square">
                    <path d="M0.255450581,0.251287498 L95.793968,77.18116" id="Line"></path>
                </g>
                <g id="Path-2">
                    <use fill="#93A1A1" fill-rule="evenodd" xlink:href="#path-1"></use>
                    <path stroke="#93A1A1" stroke-width="3" d="M126.250685,11.1585589 L69.9997987,11.1585485 C61.2569648,11.1253671 51.9400009,16.5826472 48.3428727,27.4486963 L19.7711439,135.550652 C16.799776,150.45256 26.9083,161.231815 40.3915877,161.961491 L86.199902,161.961491 L89.4498751,150.057908 L45.5172018,150.057908 C37.4107973,150.057908 30.6486527,143.231264 32.2990951,134.059013 L32.325481,133.940238 L59.1845856,32.6435856 C60.9952514,27.0175475 65.9354076,23.5144951 70.7462061,23.600826 L122.958647,23.5374679 L126.250685,11.1585589 Z"></path>
                    <use stroke="#93A1A1" stroke-width="1" xlink:href="#path-1"></use>
                </g>
                <g id="O-combined">
                    <use fill="#93A1A1" fill-rule="evenodd" xlink:href="#path-2"></use>
                    <path stroke="#93A1A1" stroke-width="3" d="M226.197843,38.6192399 C228.646857,23.6874204 219.864991,11.9552095 205.497396,11.0181822 L177.126782,10.9361844 C166.897563,10.9361844 157.962022,17.6344888 155.532479,27.424938 L127.191387,134.416934 C125.364463,142.623233 127.385205,149.613966 132.30751,154.820691 C136.456845,159.209783 142.42523,161.890048 147.308996,161.890048 L176.862631,161.890048 C186.266173,161.890048 195.535766,154.84983 197.498253,146.315021 C198.391339,142.431007 203.552902,122.931843 211.640289,92.7499694 C211.718778,92.4570589 211.718778,92.4570589 211.797269,92.1641588 C214.951689,80.3931918 218.33139,67.8176637 221.711085,55.2662123 C222.893975,50.8732187 223.992373,46.7970129 224.978119,43.1411806 C225.323133,41.8616276 225.629423,40.7260138 225.893468,39.7472875 C226.126793,38.8825163 226.156657,38.7718327 226.197843,38.6192399 Z M213.45082,40.3672207 L213.430479,40.4506889 C211.765795,46.5203836 208.146538,60.1488389 200.515606,89.0104765 L200.492093,89.0994075 C190.063229,128.543461 187.773248,137.176349 186.954898,140.0272 C184.876951,146.941726 181.658665,149.844374 175.119101,149.84431 L151.936395,149.629595 C144.648496,149.629595 137.729215,143.014788 139.41502,134.213858 L139.438343,134.111591 L166.230976,33.0699663 L166.284622,32.9062513 C167.517935,29.7649035 168.400441,28.1281501 170.074993,26.5318422 C172.329684,24.3825026 175.464081,23.2597213 179.775714,23.2598602 C182.060378,23.2909583 185.144881,23.3354713 188.831126,23.390204 C189.228107,23.3961016 189.228107,23.3961016 189.624669,23.4020059 C192.425691,23.4437315 195.380981,23.4884368 198.305755,23.5331421 C199.329422,23.5487889 200.276159,23.5633181 201.122865,23.5763572 C201.992687,23.589769 201.992687,23.589769 202.185177,23.5927501 L202.314651,23.6003631 C207.207046,24.1010154 210.57569,26.7532788 212.361068,30.8157565 C213.706648,33.8775126 214.034406,37.6345401 213.45082,40.3672207 Z"></path>
                    <use stroke="#93A1A1" stroke-width="1" xlink:href="#path-2"></use>
                </g>
                <path d="M335.027616,39.2665632 L306.322157,146.980016 C302.759391,156.596714 294.046194,162.815488 284.251731,163.373821 L225.332305,163.373821 L266.036479,9.84704652 L312.863783,9.84704652 C328.358099,10.8544433 337.6413,23.5525402 335.027616,39.2665632 Z M319.391592,40.4442175 C320.257994,36.3872357 319.431754,26.0407843 309.858401,25.0611166 L277.314218,25.0611166 L244.629931,148.461578 L281.633615,148.461578 C285.611933,148.461578 291.151958,145.889216 292.926059,139.985764 C294.776474,133.538597 315.167731,55.8450717 319.391592,40.4442175 Z" id="D-combined" fill="#168DCF"></path>
                <g id="Path-3">
                    <use fill="#93A1A1" fill-rule="evenodd" xlink:href="#path-3"></use>
                    <path stroke="#93A1A1" stroke-width="3" d="M444.838809,23.3939384 L448.122943,11.0003174 L374.510496,10.9251011 L334.480033,161.905522 L407.949283,162.058454 L411.243613,150.005569 L349.968563,150.005569 L365.038125,92.6578794 L410.994743,92.6584472 L414.289813,80.232008 L368.325264,80.232008 L383.519238,23.3939384 L444.838809,23.3939384 Z"></path>
                    <use stroke="#93A1A1" stroke-width="1" xlink:href="#path-3"></use>
                </g>
                <g id="C-Guides" transform="translate(10.659884, 9.765042)"></g>
                <g id="O-Guides" transform="translate(138.385174, 9.765042)"></g>
            </g>
        </g>
    </g>
</svg>